<svg xmlns="http://www.w3.org/2000/svg" viewBox="0 0 48 48" fill="none" role="img" aria-label="Oakridge School">
  <title>Oakridge School</title>
  <rect width="48" height="48" rx="11" fill="#2D4059"/>
  <!-- Oak leaf -->
  <path
    fill="#96BB7C"
    d="M24 8.5C17 11 12.5 16.8 12.5 22.6c0 3 1.4 5.8 3.8 7.6 1.4-6 5.8-10.6 11.8-12.4 2.8-5 4.4-8 7.9-9.3-.9-.9-2.8-2-11-2Z"
  />
  <path
    fill="#84AA6E"
    d="M24 14.2c-4.5 1.7-7.5 5.2-8.6 9.5 3.1-2.3 7.2-3.7 11.5-4 .5-2.2-.5-4.1-2.9-5.5Z"
  />
  <!-- Open book -->
  <path
    fill="#FAFAFA"
    d="M13.5 27.8c2.7-1.9 6.2-3 10.5-3s7.8 1.1 10.5 3V40H13.5V27.8Z"
  />
  <path stroke="#2D4059" stroke-width="1.25" stroke-linecap="round" d="M24 29.2V39.8"/>
</svg>
